<svg width="134" height="32" viewBox="0 0 134 32" fill="none" xmlns="http://www.w3.org/2000/svg">
<rect width="134" height="32" rx="16" fill="#414653" fill-opacity="0.2"/>
<circle cx="15" cy="16" r="3" fill="#51FF55"/>
<path d="M27.3253 20.5H26.4493L29.6053 11.908H30.6733L33.8653 20.5H32.9653L32.1253 18.22H28.1653L27.3253 20.5ZM30.0253 13.12L28.4293 17.464H31.8493L30.2413 13.12C30.2053 13 30.1453 12.856 30.1333 12.772C30.1213 12.844 30.0733 13 30.0253 13.12ZM36.1129 20.5L33.7369 14.692H34.6249L36.1249 18.436C36.2809 18.856 36.4369 19.252 36.5449 19.636C36.6529 19.24 36.8089 18.856 36.9769 18.436L38.5009 14.692H39.3529L36.9409 20.5H36.1129ZM41.739 20.644C40.503 20.644 39.771 19.948 39.771 18.928C39.771 17.86 40.587 17.188 41.943 17.08L43.863 16.924V16.732C43.863 15.592 43.179 15.232 42.327 15.232C41.319 15.232 40.719 15.688 40.719 16.468H39.963C39.963 15.292 40.923 14.536 42.351 14.536C43.695 14.536 44.679 15.208 44.679 16.744V20.5H43.983L43.875 19.48C43.515 20.212 42.723 20.644 41.739 20.644ZM41.931 19.972C43.155 19.972 43.863 19.12 43.863 17.86V17.548L42.147 17.68C41.055 17.776 40.611 18.256 40.611 18.904C40.611 19.612 41.139 19.972 41.931 19.972ZM46.7486 13.096C46.4126 13.096 46.1366 12.82 46.1366 12.484C46.1366 12.148 46.4126 11.86 46.7486 11.86C47.0846 11.86 47.3726 12.148 47.3726 12.484C47.3726 12.82 47.0846 13.096 46.7486 13.096ZM46.3406 20.5V14.692H47.1686V20.5H46.3406ZM49.7593 20.5H48.9313V11.752H49.7593V20.5ZM53.1883 20.644C51.9523 20.644 51.2203 19.948 51.2203 18.928C51.2203 17.86 52.0363 17.188 53.3923 17.08L55.3123 16.924V16.732C55.3123 15.592 54.6283 15.232 53.7763 15.232C52.7683 15.232 52.1683 15.688 52.1683 16.468H51.4123C51.4123 15.292 52.3723 14.536 53.8003 14.536C55.1443 14.536 56.1283 15.208 56.1283 16.744V20.5H55.4323L55.3243 19.48C54.9643 20.212 54.1723 20.644 53.1883 20.644ZM53.3803 19.972C54.6043 19.972 55.3123 19.12 55.3123 17.86V17.548L53.5963 17.68C52.5043 17.776 52.0603 18.256 52.0603 18.904C52.0603 19.612 52.5883 19.972 53.3803 19.972ZM58.5098 20.5H57.7898V11.752H58.6178V15.82C59.0258 14.968 59.8178 14.536 60.8018 14.536C62.4938 14.536 63.4778 15.856 63.4778 17.608C63.4778 19.348 62.4698 20.644 60.7778 20.644C59.8058 20.644 59.0018 20.212 58.5938 19.312L58.5098 20.5ZM58.6298 17.584C58.6298 18.928 59.3738 19.888 60.6458 19.888C61.9058 19.888 62.6378 18.928 62.6378 17.584C62.6378 16.252 61.9058 15.28 60.6458 15.28C59.3738 15.28 58.6298 16.252 58.6298 17.584ZM65.6616 20.5H64.8336V11.752H65.6616V20.5ZM69.8586 20.644C68.1546 20.644 67.0146 19.42 67.0146 17.596C67.0146 15.784 68.1426 14.536 69.7986 14.536C71.3706 14.536 72.4386 15.652 72.4386 17.296V17.704H67.8186C67.8786 19.12 68.6226 19.936 69.8706 19.936C70.8186 19.936 71.4306 19.528 71.6466 18.76H72.4386C72.1266 19.984 71.2266 20.644 69.8586 20.644ZM69.7986 15.244C68.7066 15.244 67.9866 15.964 67.8426 17.104H71.6106C71.6106 15.988 70.8906 15.244 69.7986 15.244ZM76.4426 14.692H77.3306V13.564C77.3306 12.256 78.0506 11.752 78.9386 11.752C79.1426 11.752 79.3826 11.764 79.5746 11.8V12.508H79.0826C78.3506 12.508 78.1586 12.88 78.1586 13.564V14.692H79.5266V15.388H78.1586V20.5H77.3306V15.388H76.4426V14.692ZM80.0693 17.596C80.0693 15.82 81.3173 14.536 83.0213 14.536C84.7253 14.536 85.9733 15.82 85.9733 17.596C85.9733 19.36 84.7253 20.644 83.0213 20.644C81.3173 20.644 80.0693 19.36 80.0693 17.596ZM80.9093 17.584C80.9093 18.952 81.7733 19.9 83.0213 19.9C84.2573 19.9 85.1333 18.952 85.1333 17.584C85.1333 16.24 84.2573 15.28 83.0213 15.28C81.7733 15.28 80.9093 16.24 80.9093 17.584ZM90.3336 14.62V15.364H89.8776C88.8096 15.364 88.1256 16.084 88.1256 17.188V20.5H87.2976V14.692H88.0776L88.1376 15.592C88.3656 14.968 88.9776 14.56 89.7936 14.56C89.9736 14.56 90.1296 14.572 90.3336 14.62ZM96.6344 20.5L94.0784 11.908H94.9784L96.7184 17.812C96.8384 18.232 96.9464 18.664 97.0544 19.228C97.1984 18.604 97.3184 18.232 97.4504 17.812L99.3224 11.908H100.222L102.094 17.812C102.226 18.244 102.346 18.676 102.478 19.228C102.61 18.568 102.718 18.148 102.814 17.824L104.59 11.908H105.466L102.886 20.5H102.07L99.7664 13.204L97.4624 20.5H96.6344ZM105.429 17.596C105.429 15.82 106.677 14.536 108.381 14.536C110.085 14.536 111.333 15.82 111.333 17.596C111.333 19.36 110.085 20.644 108.381 20.644C106.677 20.644 105.429 19.36 105.429 17.596ZM106.269 17.584C106.269 18.952 107.133 19.9 108.381 19.9C109.617 19.9 110.493 18.952 110.493 17.584C110.493 16.24 109.617 15.28 108.381 15.28C107.133 15.28 106.269 16.24 106.269 17.584ZM115.693 14.62V15.364H115.237C114.169 15.364 113.485 16.084 113.485 17.188V20.5H112.657V14.692H113.437L113.497 15.592C113.725 14.968 114.337 14.56 115.153 14.56C115.333 14.56 115.489 14.572 115.693 14.62ZM117.658 20.5H116.83V11.752H117.658V17.692L120.538 14.692H121.582L119.35 17.008L121.594 20.5H120.634L118.786 17.596L117.658 18.76V20.5Z" fill="#D4DCE8"/>
</svg>
